<?xml version="1.0" encoding="utf-8"?>
<svg viewBox="524.5972 239.0605 294.3088 78.51" width="294.3088" height="78.51" xmlns="http://www.w3.org/2000/svg">
  <defs>
    <style type="text/css"> 	.st0{fill-rule:evenodd;clip-rule:evenodd;fill:#3FAD55;} 	.st1{fill:#3FAD55;} 	.st2{fill-rule:evenodd;clip-rule:evenodd;fill:#486E52;} 	.st3{fill:#486E52;} </style>
  </defs>
  <g transform="matrix(1, 0, 0, 1, 373.7259502410888, -160.6595153808594)">
    <path class="st1" d="M254.24,478.11h-13.21c-6.66,0-13.33-1.33-20.11-4.12c-6.66,2.79-13.33,4.12-19.75,4.12h-8.85 c-3.39,0.12-6.3,0.12-8.6,0.12c-12,0-20.84-4.97-26.53-14.9c-4.48-7.88-6.54-17.69-6.3-29.44h12.72c0,8.6,1.33,15.63,4.12,21.33 c3.51,7.39,9.09,11.15,16.6,11.15h14.66c2.3,0,4.97-0.36,8.12-0.97c-5.69-5.57-8.48-12-8.48-19.14c0-6.66,2.3-11.87,6.78-15.75 c4-3.51,9.21-5.33,15.39-5.33s11.39,1.82,15.63,5.33c4.48,3.88,6.79,9.09,6.79,15.75c0,7.15-2.79,13.45-8.48,19.14 c3.15,0.61,7.39,0.97,12.72,0.97h6.78V478.11z M230.37,445.76c0-5.94-3.63-10.9-9.57-10.9c-5.82,0-9.33,4.97-9.33,10.9 c0,3.76,1.33,7.39,4,10.78c2.3,2.67,4.12,4,5.45,4c1.33,0,3.15-1.33,5.45-4C229.04,453.15,230.37,449.51,230.37,445.76z M226.49,415.83h-11.75v-12.24h11.75V415.83z"/>
    <path class="st1" d="M287.19,462.35c0,9.69-5.69,15.75-16.24,15.75h-19.02v-11.75h14.3c4.73,0,8.24-2.91,8.24-8.36 c0-4.73,0-8.72-0.12-12c-0.12-4.97-0.12-9.09-0.24-12.12h12.84C287.07,453.03,287.19,462.48,287.19,462.35z M268.65,424.07h-11.63 v-12.24h11.63V424.07z M286.22,424.07h-11.63v-12.24h11.63V424.07z"/>
    <path class="st1" d="M330.93,478.11h-14.9c-3.39,0-6.3-1.21-8.6-3.51c-2.67-2.54-4.12-6.18-4.12-10.78l-0.36-64.1h12.84 l0.48,59.01c0,4.36,2.18,7.63,5.57,7.63h9.09V478.11z"/>
    <path class="st1" d="M412.23,478.11h-83.6v-11.75h49.31c-1.09-6.66-3.76-11.75-8.12-15.51c-4-3.39-8.97-5.09-14.66-5.09 c-6.18,0-12.24,1.94-18.05,5.69l-4.73-9.94l32.59-32.84l9.09,8.85l-16.72,16.36c18.78,0,29.81,10.78,32.96,32.47h21.93V478.11z"/>
    <path class="st1" d="M445.18,462.35c0,9.69-5.69,15.75-16.24,15.75h-19.02v-11.75h14.3c4.73,0,8.24-2.91,8.24-8.36 c0-4.73,0-8.72-0.12-12c-0.12-4.97-0.12-9.09-0.24-12.12h12.84C445.06,453.03,445.18,462.48,445.18,462.35z M426.64,424.07h-11.63 v-12.24h11.63V424.07z M444.21,424.07h-11.63v-12.24h11.63V424.07z"/>
  </g>
</svg>