<?xml version="1.0" encoding="utf-8"?>
<svg viewBox="152.6925 128.2694 286.6226 234.6378" width="286.6226" height="234.6378" xmlns="http://www.w3.org/2000/svg">
  <defs>
    <style type="text/css"> 	.st0{fill-rule:evenodd;clip-rule:evenodd;fill:#3FAD55;} 	.st1{fill:#3FAD55;} 	.st2{fill-rule:evenodd;clip-rule:evenodd;fill:#486E52;} 	.st3{fill:#486E52;} </style>
  </defs>
  <g transform="matrix(1, 0, 0, 1, 2.603832244873047, 11.223388671874943)">
    <path class="st2" d="M262.87,314.54c-17.05,20.61-40.17,33.38-62.04,34.28c-22.38,0.92-44.33-12.48-49.43-37.87 c-5.3-26.4,5.23-61.62,35.9-76.54c61.89-30.11,115.36,57.02,181.93,74.12c11.78,3.02,28.79,3.11,38.82-7.53 c5.76-6.11,7.61-14.28,7.39-21.66c-0.32-10.82-4.71-21.06-12.93-27.8c-9.87-8.08-23.28-9.08-37.23-6.58 c-7.17,1.29-14.24,4.42-21.19,7.84c-3.47,1.71-6.91,3.62-10.29,5.71c-2.91,1.81-7.56,3.97-9.95,6.86 c0.03-0.03,0.05-0.06,0.08-0.09c17.06-20.61,40.17-33.38,62.04-34.28c22.38-0.92,44.33,12.48,49.43,37.87 c5.3,26.4-5.23,61.62-35.9,76.54c-61.89,30.11-115.36-57.02-181.93-74.12c-11.78-3.03-28.79-3.11-38.82,7.53 c-5.76,6.11-7.61,14.28-7.39,21.66c0.32,10.82,4.71,21.06,12.93,27.8c9.87,8.08,23.28,9.08,37.23,6.58 c7.17-1.29,14.24-4.42,21.19-7.84c3.48-1.71,6.91-3.62,10.29-5.71c2.91-1.81,7.56-3.98,9.95-6.86 C262.92,314.48,262.9,314.51,262.87,314.54z"/>
    <path class="st2" d="M209.06,117.09c22.25-1.03,41.13,16.16,42.16,38.42c1.03,22.25-16.17,41.13-38.42,42.16 c-22.25,1.03-41.13-16.16-42.16-38.42C169.61,137,186.81,118.13,209.06,117.09"/>
    <path class="st2" d="M369.72,141.88c19.27-0.9,35.63,14,36.52,33.28c0.9,19.27-14,35.63-33.28,36.52 c-19.27,0.9-35.63-14-36.52-33.28C335.54,159.13,350.44,142.78,369.72,141.88"/>
  </g>
</svg>